#!OML:ASF H:\GeneralSubjects\Female5\Project 1\Capture day 1\Session 1\Female5.ASF
:FULLY-SPECIFIED
:DEGREES
298
root -1.41979 16.2841 1.22992 -169.985 4.43471 -174.738
lowerback 6.48828 1.03642 2.59004
upperback -9.99935 2.61867 0.461166
thorax -14.5885 1.30606 -1.51377
lowerneck -17.3647 -0.460454 -1.66623
upperneck 30.5409 -1.60132 -1.13132
head 13.138 -1.7512 -0.575744
rclavicle -5.76476e-015 9.93923e-015
rhumerus -53.6125 20.9377 -83.2842
rradius 36.8363
rwrist -6.16439
rhand -24.7625 -14.5956
rfingers 7.12502
rthumb 1.74096 -44.5683
lclavicle -5.76476e-015 9.93923e-015
lhumerus -49.5896 7.2321 64.9714
lradius 28.1897
lwrist -6.8791
lhand -32.5837 33.4202
lfingers 7.12502
lthumb -5.81234 63.3205
rfemur -4.07515 14.2009 31.3751
rtibia -0.758763
rfoot -21.79 -14.7469
rtoes -10.5578
lfemur -24.408 -3.10653 -27.0701
ltibia 37.607
lfoot -3.62239 -11.6036
ltoes -42.5631
299
root -1.31754 16.2708 1.21752 -169.985 4.30488 -174.662
lowerback 6.12862 0.995329 2.44853
upperback -10.0096 2.56068 0.574808
thorax -14.3834 1.31418 -1.28606
lowerneck -17.3869 -0.479539 -1.52291
upperneck 30.5048 -1.72766 -0.933895
head 13.1281 -1.75825 -0.542738
rclavicle -3.77691e-015 -2.26615e-014
rhumerus -53.5625 20.5934 -83.4777
rradius 36.6281
rwrist -6.13882
rhand -23.9375 -13.8108
rfingers 7.12502
rthumb 2.53769 -43.7754
lclavicle -3.77691e-015 -2.26615e-014
lhumerus -49.6214 7.18386 64.8371
lradius 28.1756
lwrist -7.3875
lhand -32.6626 33.0365
lfingers 7.12502
lthumb -5.88849 62.9346
rfemur -3.92854 13.9077 31.9342
rtibia -0.903286
rfoot -21.2536 -15.2027
rtoes -14.0337
lfemur -22.8728 -5.4563 -27.3534
ltibia 34.8576
lfoot -4.00164 -10.0408
ltoes -41.2111
300
root -1.22233 16.256 1.2036 -169.99 4.23475 -174.367
lowerback 5.85677 0.962332 2.57128
upperback -10.0567 2.56165 0.708536
thorax -14.2703 1.3229 -1.19983
lowerneck -17.2427 -0.499161 -1.25233
upperneck 30.372 -1.86528 -0.841381
head 13.04 -1.77052 -0.570592
rclavicle -3.37934e-015 -8.34896e-015
rhumerus -53.6612 20.3889 -83.8385
rradius 36.688
rwrist -6.77267
rhand -25.5305 -15.1895
rfingers 7.12502
rthumb 0.999178 -45.1669
lclavicle -3.37934e-015 -8.34896e-015
lhumerus -49.6399 6.73698 64.9278
lradius 28.0912
lwrist -7.41517
lhand -32.3079 32.7023
lfingers 7.12502
lthumb -5.54602 62.6097
rfemur -3.83733 12.8933 32.66
rtibia -0.99311
rfoot -20.194 -15.1551
rtoes -18.0848
lfemur -21.4341 -7.08408 -27.3083
ltibia 32.4707
lfoot -7.26962 -9.42676
ltoes -34.3008
301
root -1.11876 16.2407 1.18969 -170.111 4.26986 -174.216
lowerback 5.76078 0.952783 2.37283
upperback -10.0831 2.5409 0.799649
thorax -14.2528 1.34534 -0.982968
lowerneck -17.1029 -0.51261 -0.925339
upperneck 30.2581 -2.0121 -0.756751
head 12.9604 -1.78358 -0.613328
rclavicle -1.12313e-014 5.96354e-015
rhumerus -53.6012 19.9761 -83.8913
rradius 36.7238
rwrist -6.6579
rhand -23.2246 -13.5376
rfingers 7.12502
rthumb 3.22616 -43.493
lclavicle -1.12313e-014 5.96354e-015
lhumerus -49.5757 6.23418 65.0352
lradius 27.9479
lwrist -7.3679
lhand -31.7817 32.742
lfingers 7.12502
lthumb -5.03798 62.6621
rfemur -3.55731 11.9362 33.2308
rtibia -1.20205
rfoot -19.5482 -14.2607
rtoes -18.0631
lfemur -19.9466 -8.57384 -27.0404
ltibia 30.6794
lfoot -8.28214 -9.33181
ltoes -32.9393
302
root -1.00692 16.2267 1.17368 -170.31 4.35393 -173.852
lowerback 5.76723 0.972366 2.17436
upperback -10.0664 2.56481 0.97918
thorax -14.2524 1.39147 -0.678505
lowerneck -17.1216 -0.525899 -0.80202
upperneck 30.2867 -2.19184 -0.398544
head 12.9798 -1.80119 -0.525845
rclavicle -9.93923e-015 -5.56597e-015
rhumerus -53.5178 19.4795 -83.9996
rradius 36.7824
rwrist -6.48517
rhand -24.5594 -15.0968
rfingers 7.12502
rthumb 1.93707 -45.0677
lclavicle -9.93923e-015 -5.56597e-015
lhumerus -49.3801 6.08013 64.9725
lradius 27.6332
lwrist -7.76036
lhand -31.9425 32.6937
lfingers 7.12502
lthumb -5.19321 62.6101
rfemur -3.116 11.5249 34.1229
rtibia -1.43211
rfoot -19.2568 -13.5061
rtoes -17.0725
lfemur -18.5206 -9.32683 -26.3598
ltibia 28.8888
lfoot -6.23935 -10.221
ltoes -22.1566
303
root -0.900458 16.2161 1.1566 -170.475 4.4489 -173.309
lowerback 5.74804 0.970814 2.16517
upperback -10.0442 2.58659 1.17614
thorax -14.2245 1.41863 -0.459099
lowerneck -17.2558 -0.507603 -0.563605
upperneck 30.3832 -2.35961 -0.0633621
head 13.0513 -1.80394 -0.46803
rclavicle 2.68359e-014 1.31198e-014
rhumerus -53.7951 19.5032 -84.934
rradius 37.2293
rwrist -8.24247
rhand -24.155 -14.6734
rfingers 7.12502
rthumb 2.32764 -44.6405
lclavicle 2.68359e-014 1.31198e-014
lhumerus -49.1182 6.2998 64.6245
lradius 27.2047
lwrist -8.22715
lhand -32.3842 32.9098
lfingers 7.12502
lthumb -5.61973 62.8153
rfemur -2.75719 11.2741 35.2065
rtibia -1.50052
rfoot -19.1721 -12.8782
rtoes -16.4392
lfemur -17.1407 -10.4101 -25.0846
ltibia 26.9913
lfoot -7.26708 -11.2037
ltoes -21.5827
304
root -0.794183 16.2112 1.14549 -170.596 4.5531 -173.066
lowerback 5.78402 0.942115 1.84624
upperback -10.048 2.51625 1.25587
thorax -14.2682 1.42428 -0.182083
lowerneck -17.2152 -2.43355 0.426177
upperneck 30.321 -1.80762 -0.668341
head 12.991 -0.177696 -0.470697
rclavicle 8.64713e-015 -6.36111e-015
rhumerus -53.5317 18.6766 -84.7368
rradius 37.0857
rwrist -6.77196
rhand -23.4533 -14.8934
rfingers 7.12502
rthumb 3.00532 -44.852
lclavicle 8.64713e-015 -6.36111e-015
lhumerus -49.018 6.6745 64.1869
lradius 26.9572
lwrist -8.66206
lhand -32.4736 32.7731
lfingers 7.12502
lthumb -5.70602 62.6762
rfemur -2.56275 11.0727 35.9371
rtibia -1.44038
rfoot -18.6279 -12.4629
rtoes -17.5659
lfemur -15.8912 -11.0853 -24.1461
ltibia 25.1478
lfoot -7.05804 -11.6284
ltoes -20.131
305
root -0.68059 16.2154 1.14088 -170.654 4.61235 -173.011
lowerback 5.85347 0.920692 1.21779
upperback -10.0691 2.41228 1.30149
thorax -14.3627 1.44448 0.23502
lowerneck -17.2179 -2.41478 0.64028
upperneck 30.2069 -1.99983 -0.27267
head 12.9452 -0.190424 -0.385965
rclavicle 4.87022e-015 -2.90226e-014
rhumerus -53.6043 18.244 -85.1339
rradius 37.2286
rwrist -7.05088
rhand -24.0193 -14.8261
rfingers 7.12502
rthumb 2.45877 -44.7917
lclavicle 4.87022e-015 -2.90226e-014
lhumerus -48.9494 6.97762 63.9371
lradius 26.8181
lwrist -9.00058
lhand -32.1102 32.1809
lfingers 7.12502
lthumb -5.35517 62.0932
rfemur -2.47412 11.0613 36.4825
rtibia -1.36837
rfoot -17.3352 -12.2481
rtoes -20.3853
lfemur -14.8125 -11.1231 -23.5077
ltibia 23.4022
lfoot -6.45909 -12.3332
ltoes -19.3205
306
root -0.562103 16.2256 1.13932 -170.618 4.58803 -173.01
lowerback 5.81579 0.870009 0.408248
upperback -10.0841 2.24325 1.34892
thorax -14.386 1.45595 0.77092
lowerneck -17.4594 -2.38966 0.967942
upperneck 30.1578 -2.23076 0.120648
head 12.9761 -0.20921 -0.330827
rclavicle 1.53064e-014 3.18055e-015
rhumerus -53.9264 18.3576 -86.1682
rradius 37.6631
rwrist -8.99329
rhand -24.7667 -14.3346
rfingers 7.12502
rthumb 1.73688 -44.3073
lclavicle 1.53064e-014 3.18055e-015
lhumerus -48.7082 7.05088 63.9248
lradius 26.6428
lwrist -8.85772
lhand -31.8882 32.287
lfingers 7.12502
lthumb -5.14074 62.2047
rfemur -2.47577 11.1916 36.9751
rtibia -1.26888
rfoot -16.7355 -11.5955
rtoes -20.9884
lfemur -13.9797 -10.6719 -23.0149
ltibia 21.8885
lfoot -5.88367 -12.6283
ltoes -18.1577
307
root -0.446672 16.2458 1.1399 -170.655 4.47036 -173.062
lowerback 5.89539 0.763676 -0.424859
upperback -10.0745 1.97993 1.3478
thorax -14.4475 1.41794 1.28259
lowerneck -17.3945 -2.32055 1.42204
upperneck 29.9757 -2.39076 0.423627
head 12.8849 -0.194046 -0.317702
rclavicle -1.98785e-014 2.06736e-014
rhumerus -54.1479 18.4319 -87.0968
rradius 37.9875
rwrist -10.3479
rhand -25.6112 -15.2102
rfingers 7.12502
rthumb 0.9213 -45.188
lclavicle -1.98785e-014 2.06736e-014
lhumerus -48.5094 6.85019 64.0345
lradius 26.6629
lwrist -8.22634
lhand -32.0433 32.7045
lfingers 7.12502
lthumb -5.29055 62.6185
rfemur -2.59662 10.688 37.2625
rtibia -0.883164
rfoot -16.8535 -9.9189
rtoes -20.2519
lfemur -13.136 -10.869 -22.6762
ltibia 20.4471
lfoot -5.91816 -12.8132
ltoes -16.4696
308
root -0.338371 16.2707 1.15023 -170.494 4.24872 -173.007
lowerback 5.95461 0.630212 -1.01828
upperback -10.1376 1.72481 1.33205
thorax -14.571 1.36492 1.64181
lowerneck -17.825 -2.26697 2.13627
upperneck 30.1986 -2.56496 0.437144
head 13.0568 -0.177095 -0.466005
rclavicle 1.22253e-014 8.74653e-015
rhumerus -54.2428 18.2639 -87.7643
rradius 38.0732
rwrist -10.7491
rhand -25.9131 -15.8632
rfingers 7.12502
rthumb 0.629719 -45.842
lclavicle 1.22253e-014 8.74653e-015
lhumerus -48.3534 6.61295 64.1647
lradius 26.8362
lwrist -7.63568
lhand -31.9279 33.0002
lfingers 7.12502
lthumb -5.17911 62.9169
rfemur -3.35261 9.03752 37.4697
rtibia 0.142018
rfoot -16.0498 -8.1468
rtoes -25.5827
lfemur -12.6046 -11.4701 -22.3377
ltibia 19.2286
lfoot -6.36996 -13.0042
ltoes -15.0817
309
root -0.239677 16.2995 1.16928 -170.172 4.00409 -172.861
lowerback 5.96435 0.509758 -1.37513
upperback -10.2114 1.52353 1.31904
thorax -14.6675 1.31477 1.86268
lowerneck -17.9202 -2.2768 2.42997
upperneck 29.9884 -2.8397 0.839294
head 12.9921 -0.222831 -0.40764
rclavicle -8.34896e-015 -7.95139e-015
rhumerus -54.1746 17.9668 -88.1051
rradius 38.0361
rwrist -10.2709
rhand -25.0571 -15.2864
rfingers 7.12502
rthumb 1.45644 -45.2611
lclavicle -8.34896e-015 -7.95139e-015
lhumerus -48.1087 6.40448 64.4496
lradius 27.0517
lwrist -7.20915
lhand -31.9539 33.1942
lfingers 7.12502
lthumb -5.20419 63.1103
rfemur -4.66687 6.62772 37.6291
rtibia 1.81225
rfoot -15.0365 -5.54463
rtoes -30.8397
lfemur -12.3835 -11.6603 -21.9975
ltibia 18.2937
lfoot -6.64667 -13.0983
ltoes -14.0022
310
root -0.142138 16.3302 1.19453 -169.776 3.82284 -172.809
lowerback 6.00209 0.408171 -1.83083
upperback -10.289 1.33328 1.3033
thorax -14.7885 1.28141 2.13394
lowerneck -18.0753 -2.28967 2.6677
upperneck 29.6731 -3.11925 1.24539
head 12.8993 -0.287358 -0.341661
rclavicle -6.16232e-015 1.03368e-014
rhumerus -54.1251 17.9052 -88.3736
rradius 38.1014
rwrist -9.64764
rhand -23.0022 -14.2083
rfingers 7.12502
rthumb 3.441 -44.1602
lclavicle -6.16232e-015 1.03368e-014
lhumerus -47.8699 6.13159 64.8703
lradius 27.3614
lwrist -6.84291
lhand -32.2246 33.1551
lfingers 7.12502
lthumb -5.46562 63.0646
rfemur -6.32492 4.33336 37.607
rtibia 3.92727
rfoot -14.1252 -2.60409
rtoes -36.291
lfemur -12.3477 -12.8124 -21.4803
ltibia 17.3272
lfoot -7.60557 -13.1721
ltoes -13.1331
311
root -0.0453789 16.3606 1.22099 -169.395 3.72665 -172.879
lowerback 6.09576 0.328527 -2.30209
upperback -10.3706 1.15956 1.23067
thorax -14.9483 1.25363 2.34748
lowerneck -18.1494 -2.31158 2.83083
upperneck 29.2765 -3.3653 1.59476
head 12.7578 -0.359755 -0.279948
rclavicle -3.47873e-015 -1.98785e-014
rhumerus -54.4877 18.4496 -89.1527
rradius 38.5519
rwrist -10.2252
rhand -21.031 -13.0503
rfingers 7.12502
rthumb 5.34441 -42.9629
lclavicle -3.47873e-015 -1.98785e-014
lhumerus -47.5195 5.73433 65.2837
lradius 27.5716
lwrist -6.55206
lhand -31.855 32.7442
lfingers 7.12502
lthumb -5.10875 62.6627
rfemur -8.0763 2.64328 37.3648
rtibia 6.25418
rfoot -13.5348 0.0968014
rtoes -41.5496
lfemur -12.4357 -13.9506 -21.0974
ltibia 16.5791
lfoot -8.34426 -13.2603
ltoes -13.2851
